<?xml version="1.0" encoding="UTF-8"?>
<svg xmlns="http://www.w3.org/2000/svg" xmlns:xlink="http://www.w3.org/1999/xlink" width="800" height="400" viewBox="0 0 800 400">
<defs>
<g>
<g id="glyph-0-0-82da747b">
<path d="M 20.25 -7.015625 C 20.25 -2.265625 16.703125 0.390625 10.6875 0.390625 C 4.734375 0.390625 1.03125 -2.34375 1.03125 -7.328125 C 1.03125 -7.328125 5.703125 -7.328125 5.703125 -7.328125 C 5.703125 -4.828125 7.6875 -3.453125 10.9375 -3.453125 C 13.859375 -3.453125 15.640625 -4.484375 15.640625 -6.4375 C 15.640625 -8.3125 14.46875 -8.984375 11.265625 -9.625 C 11.265625 -9.625 8 -10.265625 8 -10.265625 C 3.265625 -11.203125 1.4375 -12.890625 1.4375 -16.546875 C 1.4375 -21.09375 4.671875 -23.71875 10.265625 -23.71875 C 15.96875 -23.71875 19.421875 -21.15625 19.421875 -16.21875 C 19.421875 -16.21875 14.9375 -16.21875 14.9375 -16.21875 C 14.9375 -18.59375 13.09375 -19.875 10.046875 -19.875 C 7.578125 -19.875 6.015625 -18.75 6.015625 -16.984375 C 6.015625 -15.296875 7.015625 -14.625 10.4375 -13.953125 C 10.4375 -13.953125 14.078125 -13.25 14.078125 -13.25 C 18.40625 -12.421875 20.25 -10.6875 20.25 -7.015625 Z M 20.25 -7.015625 "/>
</g>
<g id="glyph-0-1-82da747b">
<path d="M 18.203125 -8.515625 C 18.203125 -2.96875 14.90625 0.28125 9.65625 0.28125 C 4.359375 0.28125 1.125 -2.9375 1.125 -8.640625 C 1.125 -14.296875 4.359375 -17.5625 9.625 -17.5625 C 15.046875 -17.5625 18.203125 -14.375 18.203125 -8.515625 Z M 13.734375 -8.578125 C 13.734375 -11.96875 12.125 -13.953125 9.65625 -13.953125 C 7.234375 -13.953125 5.59375 -11.9375 5.59375 -8.640625 C 5.59375 -5.34375 7.234375 -3.328125 9.65625 -3.328125 C 12.0625 -3.328125 13.734375 -5.34375 13.734375 -8.578125 Z M 13.734375 -8.578125 "/>
</g>
<g id="glyph-0-2-82da747b">
<path d="M 6.625 0 C 6.625 0 2.140625 0 2.140625 0 C 2.140625 0 2.140625 -23.328125 2.140625 -23.328125 C 2.140625 -23.328125 6.625 -23.328125 6.625 -23.328125 C 6.625 -23.328125 6.625 0 6.625 0 Z M 6.625 0 "/>
</g>
<g id="glyph-0-3-82da747b">
</g>
<g id="glyph-0-4-82da747b">
<path d="M 18.53125 0 C 18.53125 0 2.5625 0 2.5625 0 C 2.5625 0 2.5625 -23.328125 2.5625 -23.328125 C 2.5625 -23.328125 7.359375 -23.328125 7.359375 -23.328125 C 7.359375 -23.328125 7.359375 -4 7.359375 -4 C 7.359375 -4 18.53125 -4 18.53125 -4 C 18.53125 -4 18.53125 0 18.53125 0 Z M 18.53125 0 "/>
</g>
<g id="glyph-0-5-82da747b">
<path d="M 16.796875 -8 C 16.796875 -8 16.765625 -7.453125 16.765625 -7.453125 C 16.765625 -7.453125 5.1875 -7.453125 5.1875 -7.453125 C 5.3125 -4.09375 6.65625 -3.140625 8.765625 -3.140625 C 10.40625 -3.140625 11.8125 -3.609375 12.1875 -4.859375 C 12.1875 -4.859375 16.609375 -4.859375 16.609375 -4.859375 C 15.609375 -1.46875 12.484375 0.28125 8.609375 0.28125 C 3.71875 0.28125 0.703125 -2.875 0.703125 -8.421875 C 0.703125 -14.203125 3.75 -17.5625 8.703125 -17.5625 C 13.796875 -17.5625 16.796875 -13.953125 16.796875 -8 Z M 12.125 -10.4375 C 11.90625 -12.890625 10.5625 -14.140625 8.640625 -14.140625 C 6.65625 -14.140625 5.53125 -12.828125 5.25 -10.4375 C 5.25 -10.4375 12.125 -10.4375 12.125 -10.4375 Z M 12.125 -10.4375 "/>
</g>
<g id="glyph-0-6-82da747b">
<path d="M 29.828125 -23.328125 C 29.828125 -23.328125 23.359375 0 23.359375 0 C 23.359375 0 19.046875 0 19.046875 0 C 19.046875 0 15.140625 -18.203125 15.140625 -18.203125 C 15.140625 -18.203125 11.328125 0 11.328125 0 C 11.328125 0 7.015625 0 7.015625 0 C 7.015625 0 0.421875 -23.328125 0.421875 -23.328125 C 0.421875 -23.328125 5.5 -23.328125 5.5 -23.328125 C 5.5 -23.328125 9.125 -5.859375 9.125 -5.859375 C 9.125 -5.859375 12.734375 -23.328125 12.734375 -23.328125 C 12.734375 -23.328125 17.46875 -23.328125 17.46875 -23.328125 C 17.46875 -23.328125 21.25 -5.828125 21.25 -5.828125 C 21.25 -5.828125 24.734375 -23.328125 24.734375 -23.328125 C 24.734375 -23.328125 29.828125 -23.328125 29.828125 -23.328125 Z M 29.828125 -23.328125 "/>
</g>
<g id="glyph-0-7-82da747b">
<path d="M 6.625 0 C 6.625 0 2.140625 0 2.140625 0 C 2.140625 0 2.140625 -17.28125 2.140625 -17.28125 C 2.140625 -17.28125 6.625 -17.28125 6.625 -17.28125 C 6.625 -17.28125 6.625 0 6.625 0 Z M 6.6875 -19.359375 C 6.6875 -19.359375 2.203125 -19.359375 2.203125 -19.359375 C 2.203125 -19.359375 2.203125 -23.84375 2.203125 -23.84375 C 2.203125 -23.84375 6.6875 -23.84375 6.6875 -23.84375 C 6.6875 -23.84375 6.6875 -19.359375 6.6875 -19.359375 Z M 6.6875 -19.359375 "/>
</g>
<g id="glyph-0-8-82da747b">
<path d="M 9.625 0 C 8.828125 0.03125 8.03125 0.125 7.046875 0.125 C 4.09375 0.125 2.65625 -0.984375 2.65625 -3.71875 C 2.65625 -3.71875 2.65625 -13.953125 2.65625 -13.953125 C 2.65625 -13.953125 0.453125 -13.953125 0.453125 -13.953125 C 0.453125 -13.953125 0.453125 -16.921875 0.453125 -16.921875 C 0.453125 -16.921875 2.65625 -16.921875 2.65625 -16.921875 C 2.65625 -16.921875 2.65625 -21.5625 2.65625 -21.5625 C 2.65625 -21.5625 7.140625 -21.5625 7.140625 -21.5625 C 7.140625 -21.5625 7.140625 -16.921875 7.140625 -16.921875 C 7.140625 -16.921875 9.625 -16.921875 9.625 -16.921875 C 9.625 -16.921875 9.625 -13.953125 9.625 -13.953125 C 9.625 -13.953125 7.140625 -13.953125 7.140625 -13.953125 C 7.140625 -13.953125 7.140625 -4.921875 7.140625 -4.921875 C 7.140625 -3.390625 7.421875 -3.046875 8.609375 -3.046875 C 8.921875 -3.046875 9.1875 -3.078125 9.625 -3.140625 C 9.625 -3.140625 9.625 0 9.625 0 Z M 9.625 0 "/>
</g>
<g id="glyph-0-9-82da747b">
<path d="M 16.765625 0 C 16.765625 0 11.90625 0 11.90625 0 C 11.484375 -0.515625 11.390625 -1.28125 11.390625 -2.171875 C 9.828125 -0.546875 8.0625 0.28125 6.140625 0.28125 C 3.265625 0.28125 0.890625 -1.3125 0.890625 -4.671875 C 0.890625 -7.8125 2.5625 -9.28125 5.984375 -9.890625 C 5.984375 -9.890625 7.78125 -10.203125 7.78125 -10.203125 C 10.015625 -10.59375 11.359375 -10.40625 11.359375 -12.21875 C 11.359375 -13.375 10.5 -13.953125 8.765625 -13.953125 C 6.5625 -13.953125 5.828125 -13.375 5.59375 -11.578125 C 5.59375 -11.578125 1.28125 -11.578125 1.28125 -11.578125 C 1.5625 -15.578125 4 -17.5625 8.671875 -17.5625 C 13.34375 -17.5625 15.75 -15.78125 15.75 -12.25 C 15.75 -12.25 15.75 -2.65625 15.75 -2.65625 C 15.75 -1.765625 15.96875 -1.28125 16.765625 -0.546875 C 16.765625 -0.546875 16.765625 0 16.765625 0 Z M 11.359375 -7.390625 C 11.359375 -7.390625 11.359375 -8.15625 11.359375 -8.15625 C 10.84375 -7.90625 10.65625 -7.84375 9.46875 -7.609375 C 9.46875 -7.609375 7.9375 -7.328125 7.9375 -7.328125 C 6.078125 -6.96875 5.375 -6.5 5.375 -5.1875 C 5.375 -3.90625 6.296875 -3.328125 7.8125 -3.328125 C 10.078125 -3.328125 11.359375 -4.796875 11.359375 -7.390625 Z M 11.359375 -7.390625 "/>
</g>
<g id="glyph-0-10-82da747b">
<path d="M 21.796875 -11.6875 C 21.796875 -8.0625 20.765625 -4.890625 18.9375 -2.71875 C 17.34375 -0.828125 15.140625 0 11.578125 0 C 11.578125 0 2.46875 0 2.46875 0 C 2.46875 0 2.46875 -23.328125 2.46875 -23.328125 C 2.46875 -23.328125 11.578125 -23.328125 11.578125 -23.328125 C 15.171875 -23.328125 17.375 -22.53125 18.9375 -20.640625 C 20.796875 -18.4375 21.796875 -15.265625 21.796875 -11.6875 Z M 16.984375 -11.640625 C 16.984375 -16.796875 15.203125 -19.328125 11.578125 -19.328125 C 11.578125 -19.328125 7.265625 -19.328125 7.265625 -19.328125 C 7.265625 -19.328125 7.265625 -4 7.265625 -4 C 7.265625 -4 11.578125 -4 11.578125 -4 C 15.203125 -4 16.984375 -6.53125 16.984375 -11.640625 Z M 16.984375 -11.640625 "/>
</g>
<g id="glyph-0-11-82da747b">
<path d="M 11.84375 -12.984375 C 11.234375 -13.09375 10.90625 -13.125 10.4375 -13.125 C 7.8125 -13.125 6.5 -11.8125 6.5 -9.1875 C 6.5 -9.1875 6.5 0 6.5 0 C 6.5 0 2.015625 0 2.015625 0 C 2.015625 0 2.015625 -17.28125 2.015625 -17.28125 C 2.015625 -17.28125 6.5 -17.28125 6.5 -17.28125 C 6.5 -17.28125 6.5 -13.890625 6.5 -13.890625 C 7.453125 -16.21875 9.25 -17.5625 11.296875 -17.5625 C 11.421875 -17.5625 11.578125 -17.5625 11.84375 -17.53125 C 11.84375 -17.53125 11.84375 -12.984375 11.84375 -12.984375 Z M 11.84375 -12.984375 "/>
</g>
<g id="glyph-0-12-82da747b">
<path d="M 24.515625 -17.28125 C 24.515625 -17.28125 19.609375 0 19.609375 0 C 19.609375 0 14.96875 0 14.96875 0 C 14.96875 0 12.390625 -12.1875 12.390625 -12.1875 C 12.390625 -12.1875 9.625 0 9.625 0 C 9.625 0 5.03125 0 5.03125 0 C 5.03125 0 0.15625 -17.28125 0.15625 -17.28125 C 0.15625 -17.28125 4.796875 -17.28125 4.796875 -17.28125 C 4.796875 -17.28125 7.546875 -5.1875 7.546875 -5.1875 C 7.546875 -5.1875 10.171875 -17.28125 10.171875 -17.28125 C 10.171875 -17.28125 14.65625 -17.28125 14.65625 -17.28125 C 14.65625 -17.28125 17.25 -5.1875 17.25 -5.1875 C 17.25 -5.1875 19.875 -17.28125 19.875 -17.28125 C 19.875 -17.28125 24.515625 -17.28125 24.515625 -17.28125 Z M 24.515625 -17.28125 "/>
</g>
<g id="glyph-0-13-82da747b">
<path d="M 17.46875 0 C 17.46875 0 12.984375 0 12.984375 0 C 12.984375 0 12.984375 -10.65625 12.984375 -10.65625 C 12.984375 -12.703125 12.03125 -13.765625 10.109375 -13.765625 C 7.9375 -13.765625 6.5 -12.421875 6.5 -10.375 C 6.5 -10.375 6.5 0 6.5 0 C 6.5 0 2.015625 0 2.015625 0 C 2.015625 0 2.015625 -17.28125 2.015625 -17.28125 C 2.015625 -17.28125 6.5 -17.28125 6.5 -17.28125 C 6.5 -17.28125 6.5 -14.78125 6.5 -14.78125 C 7.78125 -16.703125 9.34375 -17.5625 11.6875 -17.5625 C 15.359375 -17.5625 17.46875 -15.390625 17.46875 -11.578125 C 17.46875 -11.578125 17.46875 0 17.46875 0 Z M 17.46875 0 "/>
</g>
<g id="glyph-0-14-82da747b">
<path d="M 17.3125 0.578125 C 17.3125 4.640625 14.296875 6.96875 9.09375 6.96875 C 4.359375 6.96875 1.5 4.890625 1.4375 2.078125 C 1.4375 2.078125 6.078125 2.078125 6.078125 2.078125 C 6.4375 3.390625 7.546875 4.09375 9.25 4.09375 C 11.484375 4.09375 13.0625 2.65625 13.0625 0.578125 C 13.0625 0.578125 13.0625 -1.984375 13.0625 -1.984375 C 11.390625 -0.3125 10.171875 0.28125 8.15625 0.28125 C 3.90625 0.28125 1.09375 -3.078125 1.09375 -8.453125 C 1.09375 -13.796875 4.15625 -17.5625 8.25 -17.5625 C 10.234375 -17.5625 11.71875 -16.671875 13.0625 -14.625 C 13.0625 -14.625 13.0625 -17.28125 13.0625 -17.28125 C 13.0625 -17.28125 17.3125 -17.28125 17.3125 -17.28125 C 17.3125 -17.28125 17.3125 0.578125 17.3125 0.578125 Z M 13.125 -8.515625 C 13.125 -11.71875 11.453125 -13.828125 9.21875 -13.828125 C 7.046875 -13.828125 5.5625 -11.78125 5.5625 -8.515625 C 5.5625 -5.375 7.046875 -3.453125 9.15625 -3.453125 C 11.484375 -3.453125 13.125 -5.375 13.125 -8.515625 Z M 13.125 -8.515625 "/>
</g>
<g id="glyph-0-15-82da747b">
<path d="M 17.703125 -13.5625 C 17.703125 -13.5625 14.203125 -13.5625 14.203125 -13.5625 C 14.203125 -13.5625 13.21875 -8.671875 13.21875 -8.671875 C 13.21875 -8.671875 16.421875 -8.671875 16.421875 -8.671875 C 16.421875 -8.671875 16.421875 -5.5 16.421875 -5.5 C 16.421875 -5.5 12.609375 -5.5 12.609375 -5.5 C 12.609375 -5.5 11.328125 1.03125 11.328125 1.03125 C 11.328125 1.03125 7.96875 1.03125 7.96875 1.03125 C 7.96875 1.03125 9.25 -5.5 9.25 -5.5 C 9.25 -5.5 5.953125 -5.5 5.953125 -5.5 C 5.953125 -5.5 4.671875 1.03125 4.671875 1.03125 C 4.671875 1.03125 1.28125 1.03125 1.28125 1.03125 C 1.28125 1.03125 2.5625 -5.5 2.5625 -5.5 C 2.5625 -5.5 0.09375 -5.5 0.09375 -5.5 C 0.09375 -5.5 0.09375 -8.671875 0.09375 -8.671875 C 0.09375 -8.671875 3.203125 -8.671875 3.203125 -8.671875 C 3.203125 -8.671875 4.15625 -13.5625 4.15625 -13.5625 C 4.15625 -13.5625 0.984375 -13.5625 0.984375 -13.5625 C 0.984375 -13.5625 0.984375 -16.734375 0.984375 -16.734375 C 0.984375 -16.734375 4.796875 -16.734375 4.796875 -16.734375 C 4.796875 -16.734375 5.890625 -22.296875 5.890625 -22.296875 C 5.890625 -22.296875 9.25 -22.296875 9.25 -22.296875 C 9.25 -22.296875 8.15625 -16.734375 8.15625 -16.734375 C 8.15625 -16.734375 11.453125 -16.734375 11.453125 -16.734375 C 11.453125 -16.734375 12.546875 -22.296875 12.546875 -22.296875 C 12.546875 -22.296875 15.90625 -22.296875 15.90625 -22.296875 C 15.90625 -22.296875 14.8125 -16.734375 14.8125 -16.734375 C 14.8125 -16.734375 17.703125 -16.734375 17.703125 -16.734375 C 17.703125 -16.734375 17.703125 -13.5625 17.703125 -13.5625 Z M 10.8125 -13.5625 C 10.8125 -13.5625 7.515625 -13.5625 7.515625 -13.5625 C 7.515625 -13.5625 6.5625 -8.671875 6.5625 -8.671875 C 6.5625 -8.671875 9.859375 -8.671875 9.859375 -8.671875 C 9.859375 -8.671875 10.8125 -13.5625 10.8125 -13.5625 Z M 10.8125 -13.5625 "/>
</g>
<g id="glyph-0-16-82da747b">
<path d="M 12.09375 0 C 12.09375 0 7.609375 0 7.609375 0 C 7.609375 0 7.609375 -15.640625 7.609375 -15.640625 C 7.609375 -15.640625 2.171875 -15.640625 2.171875 -15.640625 C 2.171875 -15.640625 2.171875 -18.625 2.171875 -18.625 C 6.078125 -18.625 8.421875 -20 9.125 -22.6875 C 9.125 -22.6875 12.09375 -22.6875 12.09375 -22.6875 C 12.09375 -22.6875 12.09375 0 12.09375 0 Z M 12.09375 0 "/>
</g>
<g id="glyph-0-17-82da747b">
<path d="M 16.890625 -19.171875 C 11.515625 -12.671875 9.1875 -7.171875 8.765625 0 C 8.765625 0 4.25 0 4.25 0 C 4.828125 -4.828125 5.703125 -7.8125 7.234375 -11.109375 C 8.15625 -13.09375 10.84375 -17.21875 12.21875 -18.6875 C 12.21875 -18.6875 0.921875 -18.6875 0.921875 -18.6875 C 0.921875 -18.6875 0.921875 -22.6875 0.921875 -22.6875 C 0.921875 -22.6875 16.890625 -22.6875 16.890625 -22.6875 C 16.890625 -22.6875 16.890625 -19.171875 16.890625 -19.171875 Z M 16.890625 -19.171875 "/>
</g>
<g id="glyph-0-18-82da747b">
<path d="M 16.484375 -15.96875 C 16.484375 -12.890625 15.328125 -11.171875 11.390625 -8.28125 C 8.0625 -5.859375 7.359375 -5.21875 6.78125 -4 C 6.78125 -4 16.390625 -4 16.390625 -4 C 16.390625 -4 16.390625 0 16.390625 0 C 16.390625 0 0.953125 0 0.953125 0 C 1.1875 -4.1875 2.375 -6.203125 6.203125 -8.828125 C 11.203125 -12.390625 12 -13.375 12 -15.875 C 12 -18.140625 10.78125 -19.515625 8.796875 -19.515625 C 6.75 -19.515625 5.5625 -18.046875 5.5625 -15.515625 C 5.5625 -15.515625 5.5625 -14.78125 5.5625 -14.78125 C 5.5625 -14.78125 1.28125 -14.78125 1.28125 -14.78125 C 1.25 -15.140625 1.25 -15.390625 1.25 -15.578125 C 1.25 -20.390625 4 -23.171875 8.703125 -23.171875 C 13.46875 -23.171875 16.484375 -20.359375 16.484375 -15.96875 Z M 16.484375 -15.96875 "/>
</g>
</g>
</defs>
<rect x="-80" y="-40" width="960" height="480" fill="rgb(100%, 100%, 100%)" fill-opacity="1"/>
<path fill-rule="nonzero" fill="rgb(100%, 100%, 100%)" fill-opacity="1" d="M 16 384 L 784 384 L 784 57 L 16 57 Z M 16 384 "/>
<g fill="rgb(0%, 0%, 0%)" fill-opacity="1">
<use xlink:href="#glyph-0-0-82da747b" x="176.832027" y="46.024008"/>
<use xlink:href="#glyph-0-1-82da747b" x="198.176021" y="46.024008"/>
<use xlink:href="#glyph-0-2-82da747b" x="217.728022" y="46.024008"/>
<use xlink:href="#glyph-0-3-82da747b" x="226.624018" y="46.024008"/>
<use xlink:href="#glyph-0-4-82da747b" x="235.52003" y="46.024008"/>
<use xlink:href="#glyph-0-5-82da747b" x="255.072016" y="46.024008"/>
<use xlink:href="#glyph-0-6-82da747b" x="272.864023" y="46.024008"/>
<use xlink:href="#glyph-0-7-82da747b" x="303.072022" y="46.024008"/>
<use xlink:href="#glyph-0-8-82da747b" x="311.968026" y="46.024008"/>
<use xlink:href="#glyph-0-8-82da747b" x="322.624031" y="46.024008"/>
<use xlink:href="#glyph-0-3-82da747b" x="333.280037" y="46.024008"/>
<use xlink:href="#glyph-0-6-82da747b" x="342.176033" y="46.024008"/>
<use xlink:href="#glyph-0-9-82da747b" x="372.384025" y="46.024008"/>
<use xlink:href="#glyph-0-2-82da747b" x="390.176017" y="46.024008"/>
<use xlink:href="#glyph-0-2-82da747b" x="399.072013" y="46.024008"/>
<use xlink:href="#glyph-0-3-82da747b" x="407.968008" y="46.024008"/>
<use xlink:href="#glyph-0-10-82da747b" x="416.864004" y="46.024008"/>
<use xlink:href="#glyph-0-11-82da747b" x="439.968008" y="46.024008"/>
<use xlink:href="#glyph-0-9-82da747b" x="452.416006" y="46.024008"/>
<use xlink:href="#glyph-0-12-82da747b" x="470.207997" y="46.024008"/>
<use xlink:href="#glyph-0-7-82da747b" x="495.103993" y="46.024008"/>
<use xlink:href="#glyph-0-13-82da747b" x="503.999989" y="46.024008"/>
<use xlink:href="#glyph-0-14-82da747b" x="523.55199" y="46.024008"/>
<use xlink:href="#glyph-0-3-82da747b" x="543.103992" y="46.024008"/>
<use xlink:href="#glyph-0-15-82da747b" x="551.999988" y="46.024008"/>
<use xlink:href="#glyph-0-16-82da747b" x="569.791979" y="46.024008"/>
<use xlink:href="#glyph-0-17-82da747b" x="587.583971" y="46.024008"/>
<use xlink:href="#glyph-0-18-82da747b" x="605.375963" y="46.024008"/>
</g>
<path fill="none" stroke-width="1.5" stroke-linecap="butt" stroke-linejoin="miter" stroke="rgb(0%, 0%, 0%)" stroke-opacity="1" stroke-miterlimit="2" d="M 55.839844 220.5 L 595.375 220.5 "/>
<path fill="none" stroke-width="1.5" stroke-linecap="butt" stroke-linejoin="miter" stroke="rgb(0%, 0%, 0%)" stroke-opacity="1" stroke-miterlimit="2" d="M 400 313.523438 L 400 131.015625 "/>
<path fill="none" stroke-width="1.5" stroke-linecap="butt" stroke-linejoin="miter" stroke="rgb(0%, 0%, 0%)" stroke-opacity="1" stroke-miterlimit="2" d="M 152.816406 325.746094 L 643.921875 116.640625 "/>
<path fill="none" stroke-width="1.5" stroke-linecap="butt" stroke-linejoin="miter" stroke="rgb(0%, 0%, 0%)" stroke-opacity="1" stroke-miterlimit="2" d="M 199.144531 134.980469 L 739.355469 364.992188 "/>
<path fill-rule="nonzero" fill="rgb(100%, 0%, 0%)" fill-opacity="1" d="M 54.082031 369.136719 C 54.082031 364.90625 47.738281 364.90625 47.738281 369.136719 C 47.738281 373.367188 54.082031 373.367188 54.082031 369.136719 Z M 54.082031 369.136719 "/>
<path fill-rule="nonzero" fill="rgb(100%, 0%, 0%)" fill-opacity="1" d="M 54.082031 220.5 C 54.082031 216.269531 47.738281 216.269531 47.738281 220.5 C 47.738281 224.730469 54.082031 224.730469 54.082031 220.5 Z M 54.082031 220.5 "/>
<path fill-rule="nonzero" fill="rgb(100%, 0%, 0%)" fill-opacity="1" d="M 54.082031 71.863281 C 54.082031 67.632812 47.738281 67.632812 47.738281 71.863281 C 47.738281 76.09375 54.082031 76.09375 54.082031 71.863281 Z M 54.082031 71.863281 "/>
<path fill-rule="nonzero" fill="rgb(100%, 0%, 0%)" fill-opacity="1" d="M 403.171875 369.136719 C 403.171875 364.90625 396.828125 364.90625 396.828125 369.136719 C 396.828125 373.367188 403.171875 373.367188 403.171875 369.136719 Z M 403.171875 369.136719 "/>
<path fill-rule="nonzero" fill="rgb(100%, 0%, 0%)" fill-opacity="1" d="M 403.171875 220.5 C 403.171875 216.269531 396.828125 216.269531 396.828125 220.5 C 396.828125 224.730469 403.171875 224.730469 403.171875 220.5 Z M 403.171875 220.5 "/>
<path fill-rule="nonzero" fill="rgb(100%, 0%, 0%)" fill-opacity="1" d="M 403.171875 71.863281 C 403.171875 67.632812 396.828125 67.632812 396.828125 71.863281 C 396.828125 76.09375 403.171875 76.09375 403.171875 71.863281 Z M 403.171875 71.863281 "/>
<path fill-rule="nonzero" fill="rgb(100%, 0%, 0%)" fill-opacity="1" d="M 752.261719 369.136719 C 752.261719 364.90625 745.917969 364.90625 745.917969 369.136719 C 745.917969 373.367188 752.261719 373.367188 752.261719 369.136719 Z M 752.261719 369.136719 "/>
<path fill-rule="nonzero" fill="rgb(100%, 0%, 0%)" fill-opacity="1" d="M 752.261719 220.5 C 752.261719 216.269531 745.917969 216.269531 745.917969 220.5 C 745.917969 224.730469 752.261719 224.730469 752.261719 220.5 Z M 752.261719 220.5 "/>
<path fill-rule="nonzero" fill="rgb(100%, 0%, 0%)" fill-opacity="1" d="M 752.261719 71.863281 C 752.261719 67.632812 745.917969 67.632812 745.917969 71.863281 C 745.917969 76.09375 752.261719 76.09375 752.261719 71.863281 Z M 752.261719 71.863281 "/>
</svg>
